<svg width="84" height="84" viewBox="0 0 84 84" fill="none" xmlns="http://www.w3.org/2000/svg">
<rect width="84" height="84" rx="42" fill="#101010"/>
<g clip-path="url(#clip0_2054_62)">
<path d="M44.7557 47.5253C44.9563 47.1793 45.3907 46.9575 45.8677 46.9575H54.0821L52.2692 43.6392C52.0932 43.6871 51.8921 43.7132 51.6673 43.7132H43.839C43.2078 43.7132 42.6289 44.0172 42.3356 44.5024L34.8807 56.7897H39.2451C39.2565 56.6906 39.2837 56.5919 39.3307 56.4974L44.7557 47.5253Z" fill="#F6F6F6" fill-opacity="0.41"/>
<path d="M43.839 43.7133H51.6674C51.8921 43.7133 52.0933 43.6872 52.2692 43.6391C53.0739 43.4193 53.3461 42.7351 52.8955 41.9322L44.0902 25.8081C43.4796 24.7189 42.0991 24.7399 41.4575 25.8157L23.2163 55.8658C22.632 56.846 23.5897 58 24.8618 58L33.1546 57.9934C33.7857 57.9934 34.3682 57.6392 34.661 57.1537L34.8814 56.7902L42.3363 44.5029C42.6291 44.0174 43.2079 43.7133 43.839 43.7133Z" fill="#F6F6F6"/>
<path d="M60.8988 56.5743L55.9791 47.548C55.7845 47.1898 55.343 46.9578 54.8545 46.9578H45.8673C45.3902 46.9578 44.956 47.179 44.7554 47.5256L39.3303 56.4982C39.284 56.5926 39.2563 56.6913 39.2448 56.7904C39.178 57.3782 39.7008 57.9914 40.4675 57.9914H59.7604C60.6133 57.9333 61.1439 57.2351 60.8988 56.5743Z" fill="#F6F6F6"/>
</g>
<defs>
<clipPath id="clip0_2054_62">
<rect width="38" height="33" fill="white" transform="translate(23 25)"/>
</clipPath>
</defs>
</svg>
