<svg width="116" height="116" viewBox="0 0 116 116" fill="none" xmlns="http://www.w3.org/2000/svg">
<rect width="116" height="116" rx="58" fill="#636363"/>
<g clip-path="url(#clip0_2029_69)">
<path d="M61.4885 63.7639C61.7788 63.2607 62.4075 62.938 63.0979 62.938H74.9872L72.3632 58.1113C72.1086 58.1811 71.8174 58.219 71.4921 58.219H60.1616C59.2481 58.219 58.4102 58.6613 57.9857 59.3669L47.1957 77.2394H53.5126C53.5291 77.0952 53.5685 76.9517 53.6365 76.8142L61.4885 63.7639Z" fill="#F6F6F6" fill-opacity="0.41"/>
<path d="M60.1618 58.2193H71.4923C71.8176 58.2193 72.1087 58.1814 72.3634 58.1114C73.528 57.7918 73.922 56.7965 73.2699 55.6286L60.5254 32.1754C59.6415 30.5912 57.6434 30.6217 56.7149 32.1865L30.313 75.8957C29.4674 77.3215 30.8535 79 32.6947 79L44.6974 78.9904C45.611 78.9904 46.454 78.4751 46.8777 77.769L47.1968 77.2403L57.9867 59.3678C58.4106 58.6617 59.2482 58.2193 60.1618 58.2193Z" fill="#F6F6F6"/>
<path d="M84.8534 76.9261L77.7328 63.797C77.4511 63.276 76.8122 62.9385 76.1051 62.9385H63.0973C62.4068 62.9385 61.7784 63.2603 61.4879 63.7644L53.6359 76.8154C53.5688 76.9528 53.5287 77.0963 53.5121 77.2405C53.4154 78.0954 54.1721 78.9875 55.2819 78.9875H83.2057C84.4402 78.9029 85.2082 77.8873 84.8534 76.9261Z" fill="#F6F6F6"/>
</g>
<defs>
<clipPath id="clip0_2029_69">
<rect width="55" height="48" fill="white" transform="translate(30 31)"/>
</clipPath>
</defs>
</svg>
