<svg width="184" height="26" viewBox="0 0 184 26" fill="none" xmlns="http://www.w3.org/2000/svg">
<g clip-path="url(#clip0_165_60)">
<mask id="mask0_165_60" style="mask-type:luminance" maskUnits="userSpaceOnUse" x="0" y="0" width="184" height="26">
<path d="M183.582 0.376923H0.135902V25.6229H183.582V0.376923Z" fill="white"/>
</mask>
<g mask="url(#mask0_165_60)">
<path d="M15.582 14.6932H21.3956C21.5625 14.6932 21.712 14.6732 21.8423 14.6366C22.4401 14.4686 22.6418 13.9452 22.3077 13.3308L15.7683 0.995172C15.3146 0.161941 14.2895 0.177887 13.813 1.00094L0.26642 23.9904C-0.167885 24.7405 0.543537 25.6229 1.48822 25.6229L7.64654 25.6178C8.11538 25.6178 8.54772 25.3468 8.76548 24.9756L8.92922 24.6975L14.4658 15.2971C14.6831 14.926 15.1131 14.6932 15.582 14.6932Z" fill="white"/>
<path d="M28.252 24.5325L24.5982 17.6268C24.4536 17.3527 24.1259 17.1753 23.7629 17.1753H17.0888C16.7345 17.1753 16.4123 17.3449 16.2632 17.6095L12.2346 24.4738C12.2001 24.5461 12.1795 24.6213 12.1713 24.6972C12.1217 25.1473 12.5102 25.6164 13.0791 25.6164H27.4064C28.04 25.572 28.4342 25.038 28.252 24.5325Z" fill="white"/>
<path d="M50.1984 2.99096V23.0091H46.5013V17.8043H36.4793V23.0091H32.8128V15.8597C32.8128 7.48072 37.732 2.99096 46.8372 2.99096H50.1984ZM36.5099 14.63H46.5013V6.22248H45.7373C40.0542 6.22248 36.8458 9.28236 36.5099 14.63ZM56.1131 14.9732C56.1131 18.2619 58.4351 20.0635 61.7963 20.0635C65.1573 20.0635 67.5402 18.2333 67.5402 14.9732V2.99096H71.2379V14.9446C71.2379 20.2351 67.5714 23.2951 61.9186 23.2951C56.1741 23.2951 52.4466 20.2065 52.4466 14.9446V2.99096H56.1131V14.9732ZM82.7096 17.1752H82.0679V14.0009H82.679C86.0402 14.0009 88.1179 12.571 88.1179 9.96871C88.1179 7.42352 86.1926 5.93648 82.7706 5.93648C79.2876 5.93648 77.2099 7.68092 77.2099 10.6264V23.0091H73.5429L73.5123 10.6264C73.5123 5.85068 77.1793 2.70498 82.7706 2.70498C88.3011 2.70498 91.8148 5.53613 91.8148 9.73991C91.8148 13.7721 88.698 15.5165 86.3455 15.5165V15.7739C88.0872 15.7739 89.7067 16.8034 90.4398 18.2333L93.0374 23.0091H88.9119L87.0788 19.5773C86.3455 17.8901 84.9705 17.1752 82.7096 17.1752ZM95.0263 23.0091V2.99096H98.6926V23.0091H95.0263ZM112.269 20.1493C117.066 20.1493 118.594 17.6328 118.808 15.6309H110.772V12.714H122.536V23.0091H118.839V19.2628H118.564V19.5487C118.564 21.2074 116.058 23.2951 111.659 23.2951C105.211 23.2951 100.964 19.3485 100.964 13.1716C100.964 6.82297 105.425 2.70498 112.117 2.70498C117.616 2.70498 121.497 5.56473 122.536 9.96871H118.625C117.586 7.39492 115.417 5.85068 112.117 5.85068C107.625 5.85068 104.661 8.6818 104.661 13C104.661 17.4612 107.35 20.1493 112.269 20.1493ZM124.805 23.0091V2.99096H128.472V23.0091H124.805ZM149.504 6.13668H141.895V23.0091H138.229V6.13668H130.621V2.99096H149.504V6.13668ZM166.27 2.99096V23.0091H162.573V17.8043H152.552V23.0091H148.885V15.8597C148.885 7.48072 153.804 2.99096 162.909 2.99096H166.27ZM152.582 14.63H162.573V6.22248H161.81C156.126 6.22248 152.918 9.28236 152.582 14.63ZM172.186 2.99096V19.8633H183.582V23.0091H171.788C169.741 23.0091 168.519 21.8651 168.519 19.9205V2.99096H172.186Z" fill="white"/>
</g>
</g>
<defs>
<clipPath id="clip0_165_60">
<rect width="184" height="26" fill="white"/>
</clipPath>
</defs>
</svg>
