<svg width="184" height="27" viewBox="0 0 184 27" fill="none" xmlns="http://www.w3.org/2000/svg">
<path d="M15.582 15.1932H21.3956C21.5625 15.1932 21.7119 15.1732 21.8423 15.1366C22.44 14.9686 22.6418 14.4452 22.3077 13.8308L15.7683 1.49517C15.3145 0.661941 14.2895 0.677887 13.8129 1.50094L0.266382 24.4904C-0.167923 25.2405 0.543499 26.1229 1.48818 26.1229L7.6465 26.1178C8.11534 26.1178 8.54768 25.8468 8.76544 25.4756L8.92918 25.1975L14.4657 15.7971C14.6831 15.426 15.1131 15.1932 15.582 15.1932Z" fill="black"/>
<path d="M28.252 25.0325L24.5982 18.1268C24.4537 17.8527 24.1259 17.6753 23.7629 17.6753H17.0889C16.7345 17.6753 16.4124 17.8449 16.2633 18.1095L12.2346 24.9738C12.2001 25.0461 12.1795 25.1213 12.1714 25.1972C12.1217 25.6473 12.5102 26.1164 13.0792 26.1164H27.4065C28.0401 26.072 28.4343 25.538 28.252 25.0325Z" fill="black"/>
<path d="M50.1984 3.49096V23.5091H46.5013V18.3043H36.4793V23.5091H32.8127V16.3597C32.8127 7.98073 37.732 3.49096 46.8372 3.49096H50.1984ZM36.5099 15.13H46.5013V6.72249H45.7373C40.0542 6.72249 36.8458 9.78237 36.5099 15.13ZM56.1131 15.4732C56.1131 18.7619 58.4351 20.5635 61.7963 20.5635C65.1573 20.5635 67.5402 18.7333 67.5402 15.4732V3.49096H71.2379V15.4446C71.2379 20.7351 67.5714 23.7951 61.9186 23.7951C56.1741 23.7951 52.4466 20.7065 52.4466 15.4446V3.49096H56.1131V15.4732ZM82.7096 17.6752H82.0679V14.5009H82.6789C86.0402 14.5009 88.1179 13.071 88.1179 10.4687C88.1179 7.92353 86.1926 6.43649 82.7706 6.43649C79.2876 6.43649 77.2099 8.18093 77.2099 11.1264V23.5091H73.5429L73.5123 11.1264C73.5123 6.35069 77.1793 3.20499 82.7706 3.20499C88.3011 3.20499 91.8148 6.03613 91.8148 10.2399C91.8148 14.2721 88.698 16.0165 86.3455 16.0165V16.2739C88.0872 16.2739 89.7067 17.3034 90.4398 18.7333L93.0373 23.5091H88.9119L87.0788 20.0774C86.3455 18.3901 84.9705 17.6752 82.7096 17.6752ZM95.0263 23.5091V3.49096H98.6926V23.5091H95.0263ZM112.269 20.6493C117.066 20.6493 118.594 18.1328 118.808 16.1309H110.772V13.214H122.536V23.5091H118.839V19.7628H118.564V20.0488C118.564 21.7074 116.058 23.7951 111.659 23.7951C105.211 23.7951 100.964 19.8486 100.964 13.6716C100.964 7.32297 105.425 3.20499 112.117 3.20499C117.616 3.20499 121.497 6.06473 122.536 10.4687H118.625C117.586 7.89493 115.416 6.35069 112.117 6.35069C107.625 6.35069 104.661 9.18181 104.661 13.5C104.661 17.9612 107.35 20.6493 112.269 20.6493ZM124.805 23.5091V3.49096H128.472V23.5091H124.805ZM149.504 6.63669H141.895V23.5091H138.229V6.63669H130.621V3.49096H149.504V6.63669ZM166.27 3.49096V23.5091H162.573V18.3043H152.552V23.5091H148.885V16.3597C148.885 7.98073 153.804 3.49096 162.909 3.49096H166.27ZM152.582 15.13H162.573V6.72249H161.81C156.126 6.72249 152.918 9.78237 152.582 15.13ZM172.186 3.49096V20.3633H183.582V23.5091H171.788C169.741 23.5091 168.518 22.3651 168.518 20.4205V3.49096H172.186Z" fill="black"/>
</svg>
