<svg width="280" height="162" viewBox="0 0 280 162" fill="none" xmlns="http://www.w3.org/2000/svg">
<mask id="mask0_165_302" style="mask-type:luminance" maskUnits="userSpaceOnUse" x="0" y="0" width="280" height="162">
<path d="M279.797 0.325195H0.202606V161.674H279.797V0.325195Z" fill="white"/>
</mask>
<g mask="url(#mask0_165_302)">
<path d="M147.883 69.0962C148.457 68.0398 149.699 67.3627 151.063 67.3627H174.56L169.374 57.2314C168.871 57.3777 168.295 57.4573 167.653 57.4573H145.261C143.455 57.4573 141.8 58.3856 140.96 59.8667L119.637 97.3808H132.121C132.153 97.0782 132.231 96.7768 132.365 96.4884L147.883 69.0962Z" fill="black" fill-opacity="0.36"/>
<path d="M145.261 57.4577H167.654C168.296 57.4577 168.871 57.3781 169.374 57.2315C171.676 56.5604 172.455 54.471 171.166 52.02L145.98 2.79223C144.233 -0.532892 140.284 -0.46892 138.449 2.81564L86.272 94.5601C84.6009 97.5525 87.3401 101.076 90.9789 101.076L114.7 101.056C116.505 101.056 118.171 99.9744 119.008 98.4922L119.639 97.3824L140.963 59.8687C141.8 58.3861 143.456 57.4577 145.261 57.4577Z" fill="#101010"/>
<path d="M194.059 96.7229L179.986 69.1655C179.43 68.0719 178.167 67.3633 176.77 67.3633H151.063C149.698 67.3633 148.456 68.0388 147.882 69.0968L132.364 96.4906C132.232 96.779 132.152 97.0804 132.119 97.383C131.929 99.1775 133.424 101.05 135.617 101.05H190.802C193.242 100.872 194.76 98.7404 194.059 96.7229Z" fill="#101010"/>
<path d="M32.4435 121.836V161.113H25.5873V150.901H7.00207V161.113H0.202606V147.086C0.202606 130.646 9.32522 121.836 26.2106 121.836H32.4435ZM7.05876 144.673H25.5873V128.177H24.1708C13.6316 128.177 7.68201 134.18 7.05876 144.673ZM43.4122 145.346C43.4122 151.799 47.7183 155.334 53.9513 155.334C60.1842 155.334 64.6038 151.743 64.6038 145.346V121.836H71.46V145.29C71.46 155.67 64.6606 161.674 54.1778 161.674C43.5252 161.674 36.6126 155.615 36.6126 145.29V121.836H43.4122V145.346ZM92.7339 149.667H91.5442V143.439H92.6772C98.9101 143.439 102.763 140.633 102.763 135.527C102.763 130.533 99.1933 127.616 92.8474 127.616C86.3879 127.616 82.5348 131.038 82.5348 136.818V161.113H75.7353L75.6786 136.818C75.6786 127.447 82.478 121.275 92.8474 121.275C103.103 121.275 109.619 126.83 109.619 135.078C109.619 142.99 103.84 146.412 99.4766 146.412V146.917C102.707 146.917 105.71 148.937 107.069 151.743L111.886 161.113H104.236L100.836 154.38C99.4766 151.07 96.927 149.667 92.7339 149.667ZM115.575 161.113V121.836H122.374V161.113H115.575ZM147.551 155.502C156.447 155.502 159.28 150.565 159.677 146.637H144.775V140.914H166.59V161.113H159.734V153.763H159.224V154.324C159.224 157.578 154.577 161.674 146.418 161.674C134.462 161.674 126.586 153.931 126.586 141.811C126.586 129.355 134.859 121.275 147.268 121.275C157.467 121.275 164.663 126.886 166.59 135.527H159.337C157.41 130.477 153.387 127.447 147.268 127.447C138.938 127.447 133.442 133.002 133.442 141.475C133.442 150.228 138.429 155.502 147.551 155.502ZM170.798 161.113V121.836H177.598V161.113H170.798ZM216.6 128.008H202.491V161.113H195.692V128.008H181.583V121.836H216.6V128.008ZM247.694 121.836V161.113H240.838V150.901H222.252V161.113H215.453V147.086C215.453 130.646 224.575 121.836 241.461 121.836H247.694ZM222.309 144.673H240.838V128.177H239.421C228.882 128.177 222.932 134.18 222.309 144.673ZM258.662 121.836V154.941H279.797V161.113H257.926C254.129 161.113 251.863 158.869 251.863 155.053V121.836H258.662Z" fill="#101010"/>
</g>
</svg>
