<svg width="458" height="465" viewBox="0 0 458 465" fill="none" xmlns="http://www.w3.org/2000/svg">
<g clip-path="url(#clip0_165_97)">
<mask id="path-2-inside-1_165_97" fill="white">
<path d="M297.574 0C309.188 0 317 14.0839 317 25.6982V103.698C317 129.103 337.595 149.698 363 149.698H441C449.346 149.698 458 155.518 458 163.864V443C458 455.15 448.15 465 436 465H22C9.84972 465 0 455.15 0 443V22C0 9.84974 9.84974 0 22 0H297.574Z"/>
</mask>
<path d="M317 25.6982H315V103.698H317H319V25.6982H317ZM317 103.698H315C315 130.208 336.49 151.698 363 151.698V149.698V147.698C338.699 147.698 319 127.999 319 103.698H317ZM363 149.698V151.698H441V149.698V147.698H363V149.698ZM458 163.864H456V443H458H460V163.864H458ZM436 465V463H22V465V467H436V465ZM0 443H2V22H0H-2V443H0ZM22 0V2H297.574V0V-2H22V0ZM0 22H2C2 10.9543 10.9543 2 22 2V0V-2C8.74516 -2 -2 8.74517 -2 22H0ZM22 465V463C10.9543 463 2 454.046 2 443H0H-2C-2 456.255 8.74515 467 22 467V465ZM458 443H456C456 454.046 447.046 463 436 463V465V467C449.255 467 460 456.255 460 443H458ZM441 149.698V151.698C444.736 151.698 448.551 153.009 451.401 155.229C454.235 157.437 456 160.439 456 163.864H458H460C460 158.943 457.438 154.862 453.859 152.074C450.295 149.297 445.611 147.698 441 147.698V149.698ZM317 25.6982L319 25.6983C319 19.4882 316.925 12.6697 313.293 7.36388C309.662 2.0617 304.265 -2 297.574 -2V0V2C302.497 2 306.813 4.98027 309.992 9.62364C313.169 14.2634 315 20.294 315 25.6982L317 25.6982Z" fill="white" fill-opacity="0.1" mask="url(#path-2-inside-1_165_97)"/>
<rect x="339" y="15" width="112" height="112" rx="27" fill="#F2F2F2"/>
<path d="M408.185 50.9402L414.06 56.8152L409.581 61.2959L403.706 55.4209L408.185 50.9402ZM386.667 78.3334H392.542L406.812 64.063L400.937 58.188L386.667 72.4584V78.3334Z" fill="black"/>
<path d="M408.208 84.2083H386.976C386.925 84.2083 386.872 84.2279 386.821 84.2279C386.757 84.2279 386.692 84.2103 386.626 84.2083H380.792V56.7917H394.2L398.117 52.875H380.792C378.632 52.875 376.875 54.6297 376.875 56.7917V84.2083C376.875 86.3703 378.632 88.125 380.792 88.125H408.208C409.247 88.125 410.243 87.7124 410.978 86.9778C411.712 86.2433 412.125 85.2471 412.125 84.2083V67.2335L408.208 71.1502V84.2083Z" fill="black"/>
</g>
<defs>
<clipPath id="clip0_165_97">
<path d="M0 20C0 8.95431 8.9543 0 20 0H438C449.046 0 458 8.95431 458 20V445C458 456.046 449.046 465 438 465H20C8.95432 465 0 456.046 0 445V20Z" fill="white"/>
</clipPath>
</defs>
</svg>
