<svg width="458" height="465" viewBox="0 0 458 465" fill="none" xmlns="http://www.w3.org/2000/svg">
<g clip-path="url(#clip0_165_85)">
<mask id="path-2-inside-1_165_85" fill="white">
<path d="M295.574 0C307.188 0 315 14.0839 315 25.6982V103.698C315 129.103 335.595 149.698 361 149.698H441C449.346 149.698 458 155.518 458 163.864V443C458 455.15 448.15 465 436 465H22C9.84972 465 0 455.15 0 443V22C0 9.84974 9.84974 0 22 0H295.574Z"/>
</mask>
<path d="M361 149.698V151.698V149.698ZM315 25.6982H313V103.698H315H317V25.6982H315ZM315 103.698H313C313 130.208 334.49 151.698 361 151.698V149.698V147.698C336.699 147.698 317 127.999 317 103.698H315ZM361 149.698V151.698H441V149.698V147.698H361V149.698ZM458 163.864H456V443H458H460V163.864H458ZM436 465V463H22V465V467H436V465ZM0 443H2V22H0H-2V443H0ZM22 0V2H295.574V0V-2H22V0ZM0 22H2C2 10.9543 10.9543 2 22 2V0V-2C8.74517 -2 -2 8.74517 -2 22H0ZM22 465V463C10.9543 463 2 454.046 2 443H0H-2C-2 456.255 8.74515 467 22 467V465ZM458 443H456C456 454.046 447.046 463 436 463V465V467C449.255 467 460 456.255 460 443H458ZM441 149.698V151.698C444.736 151.698 448.551 153.009 451.401 155.229C454.235 157.437 456 160.439 456 163.864H458H460C460 158.943 457.438 154.862 453.859 152.074C450.295 149.297 445.611 147.698 441 147.698V149.698ZM315 25.6982L317 25.6983C317 19.4882 314.925 12.6697 311.293 7.36388C307.662 2.0617 302.265 -2 295.574 -2V0V2C300.498 2 304.813 4.98027 307.992 9.62364C311.169 14.2634 313 20.294 313 25.6982L315 25.6982Z" fill="white" fill-opacity="0.1" mask="url(#path-2-inside-1_165_85)"/>
<rect x="339" y="15" width="112" height="112" rx="27" fill="#F2F2F2"/>
<path d="M386.062 79.6406C389.557 79.6406 392.391 76.8074 392.391 73.3125C392.391 69.8176 389.557 66.9844 386.062 66.9844C382.568 66.9844 379.734 69.8176 379.734 73.3125C379.734 76.8074 382.568 79.6406 386.062 79.6406Z" stroke="black" stroke-width="4" stroke-linecap="round" stroke-linejoin="round"/>
<path d="M402.938 65.5781C406.432 65.5781 409.266 62.7449 409.266 59.25C409.266 55.7551 406.432 52.9219 402.938 52.9219C399.443 52.9219 396.609 55.7551 396.609 59.25C396.609 62.7449 399.443 65.5781 402.938 65.5781Z" stroke="black" stroke-width="4" stroke-linecap="round" stroke-linejoin="round"/>
<path d="M393.797 74.0156C393.797 71.2031 395.906 65.5781 402.938 65.5781C409.969 65.5781 412.078 71.2031 412.078 74.0156M376.922 88.0781C376.922 85.2656 379.031 79.6406 386.062 79.6406C393.094 79.6406 395.203 85.2656 395.203 88.0781" stroke="black" stroke-width="4" stroke-linecap="round" stroke-linejoin="round"/>
</g>
<defs>
<clipPath id="clip0_165_85">
<path d="M0 20C0 8.95431 8.9543 0 20 0H438C449.046 0 458 8.95431 458 20V445C458 456.046 449.046 465 438 465H20C8.95432 465 0 456.046 0 445V20Z" fill="white"/>
</clipPath>
</defs>
</svg>
