<svg width="40" height="34" viewBox="0 0 40 34" fill="none" xmlns="http://www.w3.org/2000/svg">
<path d="M16.6396 15.1281L9.37451 6.44465L18.3562 13.6036L19.8583 0.548584H13.4975C10.1792 0.548584 6.96049 3.05198 6.30142 6.14574L4.13263 16.3387L16.6396 15.1281Z" fill="#B2FF00"/>
<path d="M21.6439 13.6111L30.6256 6.45212L23.3605 15.1281L36.1281 16.3686L36.6645 13.8652L38.3122 6.14574L39.5 0.548584H33.4995H20.5174H20.1418L21.6439 13.6111Z" fill="#B2FF00"/>
<path d="M18.3638 20.1571L9.38214 27.3161L16.6395 18.6327L3.90269 17.3997L3.7111 18.2964L1.67259 27.8467L0.500061 33.3616H5.51204C5.82624 33.4139 6.14811 33.4438 6.48531 33.4438H19.8812L18.3638 20.1571Z" fill="#B2FF00"/>
<path d="M23.3605 18.6326L30.6255 27.316L21.6438 20.157L20.1188 33.4512H26.4872C29.8055 33.4512 33.0242 30.9478 33.6833 27.854L35.9057 17.4294L23.3605 18.6326Z" fill="#B2FF00"/>
</svg>
