<svg width="590" height="133" viewBox="0 0 590 133" fill="none" xmlns="http://www.w3.org/2000/svg">
<g clip-path="url(#clip0_411_1369)">
<path d="M236.845 0L227.935 37.7205H180.123L189.001 0H174.481L152.471 93.2626H166.959L177.194 50.1836H225.007L214.834 93.2626H229.199L251.364 0H236.845Z" fill="white"/>
<path d="M234.841 93.2626H248.466L263.263 30.0439H249.792L234.841 93.2626Z" fill="white"/>
<path d="M256.697 0L253.245 14.5102H267.117L270.569 0H256.697Z" fill="white"/>
<path d="M399.026 31.3985C394.988 29.502 390.61 28.5085 386.017 28.5085C379.451 28.5085 373.316 30.1944 367.829 33.5058C366.411 34.3788 365.086 35.3121 363.791 36.3657C365.332 32.8435 366.103 28.8999 366.103 24.5348C366.103 15.052 362.342 8.12804 354.913 3.94356C350.288 1.35461 344.709 0.0300293 338.328 0.0300293H299.855L277.814 93.2625H292.611L301.612 54.7894H325.75C331.484 54.7894 336.016 54.4884 339.252 53.9164C342.551 53.3143 346.127 52.0499 349.949 50.1835C351.799 49.2503 353.433 48.1966 354.943 47.0828C354.913 47.1731 354.851 47.2333 354.789 47.3236C351.645 53.1337 350.073 59.6964 350.073 66.8612C350.073 72.4906 351.244 77.4578 353.587 81.6122C355.93 85.8268 359.259 89.1081 363.483 91.3358C367.644 93.5635 372.422 94.6774 377.632 94.6774C382.934 94.6774 387.836 93.6237 392.244 91.5164C396.622 89.4393 400.444 86.5192 403.527 82.8766C406.61 79.2641 409.014 75.0796 410.648 70.4134C412.282 65.7473 413.114 60.8102 413.114 55.6925C412.96 49.7319 411.573 44.6443 409.014 40.5502C406.517 36.4259 403.126 33.3553 399.026 31.3985ZM399.797 54.5486C399.797 61.2016 398.41 67.102 395.666 72.1294C392.984 77.0063 389.901 80.2274 386.449 81.7326C379.728 84.6828 375.382 84.6828 371.282 82.6658C369.37 81.7326 367.798 80.4381 366.627 78.8426C364.654 76.1332 363.667 72.31 363.667 67.4332C363.667 62.4359 364.654 57.7095 366.565 53.3745C368.476 49.0997 371.189 45.6077 374.642 43.0488C378.033 40.5502 381.917 39.2557 386.171 39.2557C388.668 39.2557 390.98 39.8277 393.015 40.9716C395.019 42.0855 396.652 43.7713 397.855 45.999C399.057 48.317 399.704 51.207 399.797 54.5486ZM337.495 12.6135C347.175 12.9447 351.676 16.7679 351.676 24.6552C351.676 27.0033 351.152 29.3514 350.134 31.6092C349.117 33.8369 347.514 35.8539 345.387 37.5699C343.26 39.2858 340.547 40.5502 337.31 41.3028C334.567 41.9651 329.819 42.2962 323.161 42.2962H304.572L311.6 12.5834L337.495 12.6135Z" fill="white"/>
<path d="M588.212 29.0504C587.534 28.9601 586.64 28.8999 585.53 28.8999C582.355 28.8999 579.765 29.3816 577.792 30.3449C575.912 31.248 574.124 32.4522 572.521 33.837C571.812 34.409 571.134 35.0412 570.486 35.7034L571.812 30.074H558.587L552.36 56.6559C552.391 56.0237 552.453 55.3313 552.453 54.7293C552.453 49.6417 551.559 45.126 549.832 41.2426C548.044 37.2689 545.27 34.138 541.509 31.9103C537.81 29.7127 533.186 28.5989 527.76 28.5989C522.211 28.5989 517.125 29.7127 512.655 31.9404C509.665 33.4155 506.983 35.3121 504.609 37.5398L508.986 30.1342H494.559L469.373 75.7419L465.273 30.1342H452.85L428.62 75.5613L424.89 30.1342H411.85L418.324 93.3528H430.562L455.316 47.9558L459.17 93.3528H471.562L493.819 55.7528C492.74 59.6663 492.155 63.6401 492.155 67.674C492.155 73.153 493.264 77.9997 495.422 82.0337C497.611 86.1278 500.786 89.3189 504.855 91.4864C508.863 93.6238 513.61 94.7376 518.913 94.7376C522.612 94.7376 526.404 94.1957 530.226 93.1722C534.11 92.1186 537.871 90.1317 541.416 87.2417C543.359 85.6763 545.054 83.7496 546.565 81.552L543.821 93.3227H556.892L563.828 63.8207C564.968 59.275 566.386 55.1206 568.051 51.5081C569.623 48.0762 572.059 45.397 575.295 43.5305C577.484 42.236 581.029 41.5738 585.869 41.5738H587.102L590 29.3515L588.212 29.0504ZM548.414 73.2433L537.81 71.437L537.316 72.4907C536.207 74.8689 534.912 76.9461 533.463 78.6921C532.107 80.3177 530.01 81.6724 527.113 82.7261C523.629 84.2313 519.128 84.3818 514.134 82.4551C511.792 81.552 509.695 79.8361 507.907 77.3374C506.119 74.8689 505.225 71.437 505.225 67.102C505.225 66.5 505.287 65.5065 505.38 64.0916H550.572L548.414 73.2433ZM508.061 53.8261C510.034 48.7084 512.778 45.0056 516.231 42.8682C524.277 37.901 530.781 38.0516 535.652 42.6575C538.087 45.0056 539.289 48.2569 539.289 52.622C539.289 53.0434 539.289 53.4348 539.259 53.796H508.061V53.8261Z" fill="white"/>
<path d="M64.9216 59.1848L35.6976 24.2038L71.8269 53.0436L77.869 0.45166H52.2825C38.9344 0.45166 25.987 10.5365 23.3359 22.9996L14.6118 64.0617L64.9216 59.1848Z" fill="white"/>
<path d="M85.0519 53.0737L121.181 24.2339L91.9572 59.1848L143.315 64.1821L145.473 54.0972L152.101 22.9996L156.879 0.45166H132.741H80.5203H79.0098L85.0519 53.0737Z" fill="white"/>
<path d="M71.858 79.4448L35.7286 108.285L64.9219 73.3036L13.6872 68.3364L12.9166 71.9489L4.71655 110.422L0 132.639H20.1609C21.4248 132.85 22.7196 132.97 24.076 132.97H77.9617L71.858 79.4448Z" fill="white"/>
<path d="M91.9574 73.3036L121.181 108.285L85.0521 79.4448L78.9175 133H104.535C117.883 133 130.83 122.915 133.481 110.452L142.421 68.4568L91.9574 73.3036Z" fill="white"/>
<path d="M155.893 119.784H150.683L149.85 123.999H155.708L155.307 126.106H146.922L149.696 111.897H157.773L157.341 113.974H151.793L151.053 117.677H156.293L155.893 119.784Z" fill="white"/>
<path d="M159.993 126.076L162.767 111.867H165.665L168.193 118.49C168.809 120.206 169.179 121.53 169.487 122.945H169.549C169.611 121.56 169.796 120.176 170.196 118.159L171.399 111.927H173.742L170.967 126.136H168.408L165.819 119.423C165.141 117.557 164.771 116.413 164.432 114.847H164.37C164.216 116.202 163.908 117.948 163.507 120.055L162.336 126.136H159.993V126.076Z" fill="white"/>
<path d="M185.332 119.784H180.123L179.29 123.999H185.148L184.747 126.106H176.362L179.136 111.897H187.213L186.781 113.974H181.232L180.493 117.677H185.733L185.332 119.784Z" fill="white"/>
<path d="M192.145 112.138C193.07 111.927 194.427 111.807 195.721 111.807C197.139 111.807 198.465 112.078 199.39 112.71C200.191 113.282 200.746 114.125 200.746 115.299C200.746 117.376 199.236 118.791 197.386 119.363V119.423C198.311 119.784 198.742 120.778 198.866 122.132C199.051 123.908 199.143 125.534 199.359 126.106H196.77C196.677 125.775 196.523 124.42 196.4 122.734C196.276 120.898 195.598 120.266 194.273 120.266H193.039L191.899 126.136H189.402L192.145 112.138ZM193.44 118.369H194.858C196.8 118.369 198.126 117.165 198.126 115.63C198.126 114.305 197.047 113.733 195.629 113.733C194.982 113.733 194.581 113.794 194.273 113.854L193.44 118.369Z" fill="white"/>
<path d="M215.235 125.444C214.248 125.775 212.583 126.226 210.795 126.226C208.792 126.226 207.158 125.685 205.986 124.571C204.846 123.487 204.322 121.922 204.322 120.296C204.322 117.767 205.37 115.419 207.22 113.824C208.823 112.499 211.011 111.746 213.447 111.746C215.296 111.746 216.591 112.138 217.115 112.379L216.344 114.456C215.666 114.125 214.587 113.854 213.262 113.854C211.689 113.854 210.271 114.365 209.192 115.269C207.898 116.352 207.065 118.189 207.065 120.145C207.065 122.674 208.483 124.149 211.196 124.149C211.967 124.149 212.614 123.999 213.077 123.818L213.755 120.266H211.196L211.597 118.279H216.622L215.235 125.444Z" fill="white"/>
<path d="M225.408 111.897L222.633 126.106H220.136L222.911 111.897H225.408ZM227.966 108.555L225.069 111.144H222.911L225.007 108.555H227.966Z" fill="white"/>
<path d="M231.604 122.042L229.631 126.076H226.949L234.224 111.867H237.369L239.188 126.076H236.567L236.136 122.042H231.604ZM236.012 120.146L235.612 116.623C235.55 115.871 235.458 114.757 235.396 113.914H235.334C234.964 114.787 234.564 115.78 234.163 116.623L232.406 120.176H236.012V120.146Z" fill="white"/>
<path d="M250.008 123.276C250.84 123.788 252.011 124.18 253.275 124.18C254.663 124.18 255.957 123.457 255.957 122.072C255.957 121.139 255.341 120.507 253.923 119.754C252.227 118.881 250.963 117.737 250.963 116.051C250.963 113.342 253.368 111.656 256.327 111.656C257.93 111.656 258.978 112.048 259.564 112.379L258.732 114.426C258.269 114.155 257.283 113.764 256.111 113.794C254.508 113.794 253.584 114.697 253.584 115.66C253.584 116.623 254.416 117.226 255.772 117.948C257.56 118.851 258.608 119.995 258.608 121.711C258.608 124.541 256.235 126.317 252.998 126.317C251.241 126.317 249.792 125.805 249.145 125.324L250.008 123.276Z" fill="white"/>
<path d="M276.427 117.527C276.427 120.055 275.502 122.674 273.806 124.3C272.481 125.564 270.724 126.317 268.627 126.317C264.866 126.317 262.894 123.638 262.894 120.477C262.894 117.948 263.88 115.299 265.606 113.643C266.901 112.409 268.751 111.656 270.724 111.656C274.577 111.656 276.427 114.305 276.427 117.527ZM267.518 114.938C266.254 116.172 265.514 118.49 265.514 120.326C265.514 122.464 266.5 124.24 268.936 124.24C269.984 124.24 271.001 123.788 271.772 123.036C273.005 121.831 273.714 119.393 273.714 117.587C273.714 115.72 273.036 113.673 270.354 113.673C269.275 113.703 268.319 114.185 267.518 114.938Z" fill="white"/>
<path d="M282.314 111.897H284.842L282.499 123.939H288.202L287.802 126.076H279.571L282.314 111.897Z" fill="white"/>
<path d="M295.786 122.042L293.813 126.076H291.131L298.406 111.867H301.55L303.369 126.076H300.749L300.317 122.042H295.786ZM300.225 120.146L299.824 116.623C299.762 115.871 299.67 114.757 299.608 113.914H299.516C299.146 114.787 298.745 115.78 298.344 116.623L296.587 120.176H300.225V120.146Z" fill="white"/>
<path d="M310.182 112.138C311.107 111.927 312.463 111.807 313.758 111.807C315.176 111.807 316.502 112.078 317.426 112.71C318.228 113.282 318.783 114.125 318.783 115.299C318.783 117.376 317.272 118.791 315.423 119.363V119.423C316.347 119.784 316.779 120.778 316.902 122.132C317.087 123.908 317.18 125.534 317.396 126.106H314.806C314.714 125.775 314.56 124.42 314.436 122.734C314.313 120.898 313.635 120.266 312.309 120.266H311.076L309.935 126.136H307.438L310.182 112.138ZM311.477 118.369H312.895C314.837 118.369 316.163 117.165 316.163 115.63C316.163 114.305 315.084 113.733 313.666 113.733C313.018 113.733 312.617 113.794 312.309 113.854L311.477 118.369Z" fill="white"/>
<path d="M330.898 126.076L332.039 120.236L329.203 111.867H331.885L333.025 115.931C333.333 117.135 333.488 117.767 333.611 118.4H333.642C334.042 117.707 334.505 116.924 335.152 115.871L337.773 111.867H340.763L334.536 120.176L333.395 126.046H330.898V126.076Z" fill="white"/>
<path d="M352.046 122.042L350.073 126.076H347.391L354.666 111.867H357.81L359.629 126.076H357.009L356.577 122.042H352.046ZM356.485 120.146L356.084 116.623C356.022 115.871 355.93 114.757 355.868 113.914H355.806C355.436 114.787 355.036 115.78 354.635 116.623L352.878 120.176H356.485V120.146Z" fill="white"/>
<path d="M366.473 111.897H369L366.658 123.939H372.361L371.96 126.076H363.729L366.473 111.897Z" fill="white"/>
<path d="M388.329 126.076L389.284 119.393C389.5 117.948 389.808 115.931 390.178 114.185H390.117C389.377 115.841 388.514 117.677 387.712 119.182L384.136 125.895H382.194L381.424 119.303C381.239 117.707 381.115 115.901 381.023 114.185H380.992C380.622 115.811 380.19 117.948 379.821 119.393L378.156 126.076H375.813L379.512 111.867H382.811L383.581 118.49C383.705 119.754 383.859 121.229 383.859 122.584H383.921C384.445 121.229 385.154 119.754 385.77 118.52L389.284 111.867H392.645L390.733 126.076H388.329Z" fill="white"/>
<path d="M399.365 122.042L397.392 126.076H394.71L401.986 111.867H405.13L406.949 126.076H404.328L403.897 122.042H399.365ZM403.774 120.146L403.373 116.623C403.311 115.871 403.219 114.757 403.157 113.914H403.095C402.725 114.787 402.325 115.78 401.924 116.623L400.167 120.176H403.774V120.146Z" fill="white"/>
<path d="M420.975 125.655C420.173 126.016 418.879 126.287 417.183 126.287C413.422 126.287 410.987 123.999 410.987 120.326C410.987 117.376 412.282 114.847 414.409 113.342C415.919 112.228 417.738 111.656 419.803 111.656C421.406 111.656 422.578 112.018 422.979 112.288L422.239 114.275C421.776 114.034 420.759 113.764 419.495 113.764C418.108 113.764 416.782 114.245 415.796 115.088C414.501 116.172 413.7 117.978 413.7 120.025C413.7 122.403 414.964 124.18 417.8 124.18C418.848 124.18 419.957 123.999 420.728 123.638L420.975 125.655Z" fill="white"/>
<path d="M434.076 119.784H428.866L428.034 123.999H433.891L433.49 126.106H425.105L427.849 111.897H435.926L435.494 113.974H429.945L429.205 117.677H434.446L434.076 119.784Z" fill="white"/>
<path d="M438.176 126.076L440.92 111.867H443.818L446.376 118.46C446.993 120.176 447.363 121.5 447.671 122.915H447.733C447.794 121.53 447.979 120.146 448.38 118.129L449.582 111.897H451.925L449.182 126.106H446.623L444.033 119.393C443.355 117.527 442.985 116.383 442.646 114.817H442.585C442.43 116.172 442.122 117.918 441.721 120.025L440.55 126.106H438.176V126.076Z" fill="white"/>
<path d="M458.091 122.042L456.118 126.076H453.436L460.711 111.867H463.856L465.674 126.076H463.054L462.622 122.042H458.091ZM462.53 120.146L462.129 116.623C462.068 115.871 461.975 114.757 461.913 113.914H461.852C461.482 114.787 461.081 115.78 460.68 116.623L458.923 120.176H462.53V120.146Z" fill="white"/>
<path d="M481.92 126.076L482.876 119.393C483.092 117.948 483.4 115.931 483.77 114.185H483.708C482.968 115.841 482.105 117.677 481.304 119.182L477.728 125.895H475.786L475.015 119.303C474.83 117.707 474.707 115.901 474.614 114.185H474.583C474.213 115.811 473.782 117.948 473.412 119.393L471.747 126.076H469.404L473.104 111.867H476.402L477.173 118.49C477.296 119.754 477.45 121.229 477.45 122.584H477.512C478.036 121.229 478.745 119.754 479.361 118.52L482.876 111.867H486.236L484.325 126.076H481.92Z" fill="white"/>
<path d="M494.621 111.897L491.847 126.106H489.35L492.124 111.897H494.621Z" fill="white"/>
<path d="M506.243 119.784H501.033L500.201 123.999H506.058L505.657 126.106H497.272L500.016 111.897H508.092L507.661 113.974H502.112L501.372 117.677H506.613L506.243 119.784Z" fill="white"/>
<path d="M510.312 126.076L513.056 111.867H515.953L518.512 118.46C519.129 120.176 519.498 121.5 519.807 122.915H519.868C519.93 121.53 520.115 120.146 520.516 118.129L521.718 111.897H524.061L521.286 126.106H518.728L516.138 119.393C515.46 117.527 515.09 116.383 514.751 114.817H514.689C514.535 116.172 514.227 117.918 513.826 120.025L512.655 126.106H510.312V126.076Z" fill="white"/>
<path d="M531.613 114.034H527.606L528.038 111.897H538.611L538.18 114.034H534.11L531.768 126.076H529.271L531.613 114.034Z" fill="white"/>
<path d="M553.593 117.527C553.593 120.055 552.668 122.674 550.973 124.3C549.647 125.564 547.89 126.317 545.794 126.317C542.033 126.317 540.06 123.638 540.06 120.477C540.06 117.948 541.047 115.299 542.773 113.643C544.068 112.409 545.917 111.656 547.89 111.656C551.774 111.656 553.593 114.305 553.593 117.527ZM544.715 114.938C543.451 116.172 542.711 118.49 542.711 120.326C542.711 122.464 543.698 124.24 546.133 124.24C547.181 124.24 548.198 123.788 548.969 123.036C550.202 121.831 550.911 119.393 550.911 117.587C550.911 115.72 550.233 113.673 547.551 113.673C546.472 113.703 545.486 114.185 544.715 114.938Z" fill="white"/>
</g>
<defs>
<clipPath id="clip0_411_1369">
<rect width="590" height="133" fill="white"/>
</clipPath>
</defs>
</svg>
