<svg width="585" height="70" viewBox="0 0 585 70" fill="none" xmlns="http://www.w3.org/2000/svg">
<path d="M10.5938 39.2344C13.6562 39.7969 16.4531 39.8594 18.9844 39.4219C21.5469 38.9531 23.7344 37.9844 25.5469 36.5156C27.3906 35.0156 28.8125 33 29.8125 30.4688C30.8438 27.9375 31.3594 24.8438 31.3594 21.1875C31.3594 18.6562 31.0938 16.3594 30.5625 14.2969C30.0312 12.2031 29.2344 10.4375 28.1719 9C27.1406 7.53125 25.8281 6.40625 24.2344 5.625C22.6406 4.8125 20.7812 4.40625 18.6562 4.40625C17.3125 4.40625 16.1406 4.46875 15.1406 4.59375C14.1406 4.6875 13.2969 4.79687 12.6094 4.92188C11.7969 5.07812 11.125 5.25 10.5938 5.4375V39.2344ZM0.703125 1.78125C1.32812 1.84375 1.98438 1.90625 2.67188 1.96875C3.26562 2.03125 3.92188 2.07812 4.64062 2.10938C5.39062 2.10938 6.15625 2.10938 6.9375 2.10938C8.15625 2.10938 9.79688 1.96875 11.8594 1.6875C13.9531 1.375 16.6094 1.21875 19.8281 1.21875C22.8281 1.21875 25.5938 1.65625 28.125 2.53125C30.6875 3.40625 32.9062 4.6875 34.7812 6.375C36.6562 8.0625 38.1094 10.125 39.1406 12.5625C40.2031 14.9687 40.7344 17.7188 40.7344 20.8125C40.7344 24.9688 39.9062 28.5625 38.25 31.5938C36.5938 34.625 34.375 37.0781 31.5938 38.9531C28.8125 40.8281 25.6094 42.1094 21.9844 42.7969C18.3594 43.4531 14.5625 43.4844 10.5938 42.8906V50.6719C10.5938 53.3281 10.625 55.6562 10.6875 57.6562C10.7812 59.625 10.875 61.3281 10.9688 62.7656C11.0938 64.2031 11.2344 65.4062 11.3906 66.375C11.5781 67.3438 11.7656 68.1562 11.9531 68.8125V69H0.703125V68.8125C0.890625 68.1562 1.0625 67.3438 1.21875 66.375C1.40625 65.4062 1.5625 64.2031 1.6875 62.7656C1.8125 61.3281 1.90625 59.625 1.96875 57.6562C2.03125 55.6562 2.0625 53.3281 2.0625 50.6719V20.1562C2.0625 17.5 2.03125 15.1875 1.96875 13.2188C1.90625 11.2187 1.8125 9.5 1.6875 8.0625C1.5625 6.59375 1.40625 5.375 1.21875 4.40625C1.0625 3.4375 0.890625 2.625 0.703125 1.96875V1.78125ZM59.8125 50.6719C59.8125 53.3281 59.8438 55.6562 59.9062 57.6562C60 59.625 60.0938 61.3281 60.1875 62.7656C60.3125 64.2031 60.4531 65.4062 60.6094 66.375C60.7969 67.3438 60.9844 68.1562 61.1719 68.8125V69H49.9219V68.8125C50.1094 68.1562 50.2812 67.3438 50.4375 66.375C50.625 65.4062 50.7812 64.2031 50.9062 62.7656C51.0312 61.3281 51.125 59.625 51.1875 57.6562C51.25 55.6562 51.2812 53.3281 51.2812 50.6719V20.1562C51.2812 17.5 51.25 15.1875 51.1875 13.2188C51.125 11.2187 51.0312 9.5 50.9062 8.0625C50.7812 6.59375 50.625 5.375 50.4375 4.40625C50.2812 3.4375 50.1094 2.625 49.9219 1.96875V1.78125C50.5469 1.84375 51.2031 1.90625 51.8906 1.96875C52.4844 2.03125 53.1406 2.07812 53.8594 2.10938C54.6094 2.10938 55.375 2.10938 56.1562 2.10938C57.375 2.10938 59.0156 1.96875 61.0781 1.6875C63.1719 1.375 65.8281 1.21875 69.0469 1.21875C72.0469 1.21875 74.8125 1.625 77.3438 2.4375C79.9062 3.25 82.125 4.4375 84 6C85.875 7.5625 87.3281 9.48437 88.3594 11.7656C89.4219 14.0156 89.9531 16.5781 89.9531 19.4531C89.9531 21.7031 89.6562 23.7969 89.0625 25.7344C88.5 27.6406 87.6875 29.375 86.625 30.9375C85.5938 32.5 84.3438 33.8906 82.875 35.1094C81.4062 36.2969 79.7656 37.2969 77.9531 38.1094L94.4062 61.2188C95.2188 62.375 95.9688 63.375 96.6562 64.2188C97.375 65.0625 98.0469 65.7812 98.6719 66.375C99.3281 66.9688 99.9531 67.4688 100.547 67.875C101.141 68.25 101.75 68.5625 102.375 68.8125V69H88.8281C88.7344 68.4062 88.4219 67.625 87.8906 66.6562C87.3906 65.6562 86.7969 64.6719 86.1094 63.7031L69.5156 40.3125C67.9844 40.4688 66.4062 40.5469 64.7812 40.5469C63.1562 40.5469 61.5 40.4062 59.8125 40.125V50.6719ZM59.8125 36.4688C62.875 37.0312 65.6719 37.1094 68.2031 36.7031C70.7656 36.2969 72.9531 35.4062 74.7656 34.0312C76.6094 32.6562 78.0312 30.7969 79.0312 28.4531C80.0625 26.0781 80.5781 23.2031 80.5781 19.8281C80.5781 17.4844 80.3125 15.3594 79.7812 13.4531C79.25 11.5469 78.4531 9.9375 77.3906 8.625C76.3594 7.28125 75.0469 6.25 73.4531 5.53125C71.8594 4.78125 70 4.40625 67.875 4.40625C66.5312 4.40625 65.3594 4.46875 64.3594 4.59375C63.3594 4.6875 62.5156 4.79687 61.8281 4.92188C61.0156 5.07812 60.3438 5.25 59.8125 5.4375V36.4688ZM153.141 69V68.8125C153.203 68.6562 153.25 68.4219 153.281 68.1094C153.312 67.7969 153.328 67.5156 153.328 67.2656C153.328 66.2969 153.188 65.2344 152.906 64.0781C152.656 62.8906 152.156 61.4219 151.406 59.6719L145.734 46.9219C143.984 46.8594 141.656 46.8281 138.75 46.8281C135.844 46.8281 132.703 46.8281 129.328 46.8281C126.859 46.8281 124.469 46.8281 122.156 46.8281C119.875 46.8281 117.812 46.8594 115.969 46.9219L110.578 59.2969C110.109 60.4531 109.609 61.7188 109.078 63.0938C108.547 64.4688 108.281 65.8594 108.281 67.2656C108.281 67.6719 108.312 68.0156 108.375 68.2969C108.438 68.5469 108.5 68.7188 108.562 68.8125V69H99V68.8125C99.5625 68.2188 100.266 67.1719 101.109 65.6719C101.953 64.1406 102.875 62.2344 103.875 59.9531L130.734 0.375H134.484L159.938 57.6562C160.531 59 161.141 60.3125 161.766 61.5938C162.422 62.8438 163.031 63.9688 163.594 64.9688C164.156 65.9688 164.656 66.8125 165.094 67.5C165.531 68.1875 165.828 68.625 165.984 68.8125V69H153.141ZM122.766 42.7969C124.578 42.7969 126.438 42.7969 128.344 42.7969C130.25 42.7656 132.109 42.75 133.922 42.75C135.766 42.7188 137.531 42.7031 139.219 42.7031C140.906 42.6719 142.438 42.6406 143.812 42.6094L130.641 12.8438L117.703 42.7969H122.766ZM174.422 1.78125L222.703 53.1562V20.1562C222.703 17.5 222.672 15.1875 222.609 13.2188C222.547 11.2187 222.453 9.5 222.328 8.0625C222.203 6.59375 222.047 5.375 221.859 4.40625C221.703 3.4375 221.531 2.625 221.344 1.96875V1.78125H229.688V1.96875C229.5 2.625 229.328 3.4375 229.172 4.40625C229.016 5.375 228.875 6.59375 228.75 8.0625C228.625 9.5 228.531 11.2187 228.469 13.2188C228.406 15.1875 228.375 17.5 228.375 20.1562V69.9375H226.734L178.453 18.6094V50.6719C178.453 53.3281 178.484 55.6562 178.547 57.6562C178.609 59.625 178.703 61.3281 178.828 62.7656C178.953 64.2031 179.094 65.4062 179.25 66.375C179.406 67.3438 179.578 68.1562 179.766 68.8125V69H171.422V68.8125C171.609 68.1562 171.781 67.3438 171.938 66.375C172.125 65.4062 172.281 64.2031 172.406 62.7656C172.531 61.3281 172.625 59.625 172.688 57.6562C172.75 55.6562 172.781 53.3281 172.781 50.6719V20.1562C172.781 17.5 172.75 15.1875 172.688 13.2188C172.625 11.2187 172.531 9.5 172.406 8.0625C172.281 6.59375 172.125 5.375 171.938 4.40625C171.781 3.4375 171.609 2.625 171.422 1.96875V1.78125H174.422ZM289.266 69V68.8125C289.328 68.6562 289.375 68.4219 289.406 68.1094C289.438 67.7969 289.453 67.5156 289.453 67.2656C289.453 66.2969 289.312 65.2344 289.031 64.0781C288.781 62.8906 288.281 61.4219 287.531 59.6719L281.859 46.9219C280.109 46.8594 277.781 46.8281 274.875 46.8281C271.969 46.8281 268.828 46.8281 265.453 46.8281C262.984 46.8281 260.594 46.8281 258.281 46.8281C256 46.8281 253.938 46.8594 252.094 46.9219L246.703 59.2969C246.234 60.4531 245.734 61.7188 245.203 63.0938C244.672 64.4688 244.406 65.8594 244.406 67.2656C244.406 67.6719 244.438 68.0156 244.5 68.2969C244.562 68.5469 244.625 68.7188 244.688 68.8125V69H235.125V68.8125C235.688 68.2188 236.391 67.1719 237.234 65.6719C238.078 64.1406 239 62.2344 240 59.9531L266.859 0.375H270.609L296.062 57.6562C296.656 59 297.266 60.3125 297.891 61.5938C298.547 62.8438 299.156 63.9688 299.719 64.9688C300.281 65.9688 300.781 66.8125 301.219 67.5C301.656 68.1875 301.953 68.625 302.109 68.8125V69H289.266ZM258.891 42.7969C260.703 42.7969 262.562 42.7969 264.469 42.7969C266.375 42.7656 268.234 42.75 270.047 42.75C271.891 42.7188 273.656 42.7031 275.344 42.7031C277.031 42.6719 278.562 42.6406 279.938 42.6094L266.766 12.8438L253.828 42.7969H258.891ZM332.484 36.75V50.6719C332.484 53.3281 332.516 55.6562 332.578 57.6562C332.641 59.625 332.734 61.3281 332.859 62.7656C332.984 64.2031 333.125 65.4062 333.281 66.375C333.469 67.3438 333.656 68.1562 333.844 68.8125V69H322.594V68.8125C322.781 68.1562 322.953 67.3438 323.109 66.375C323.297 65.4062 323.438 64.2031 323.531 62.7656C323.656 61.3281 323.75 59.625 323.812 57.6562C323.906 55.6562 323.953 53.3281 323.953 50.6719V37.6875L303 9.1875C302.281 8.21875 301.562 7.32812 300.844 6.51562C300.156 5.70313 299.5 5 298.875 4.40625C298.25 3.78125 297.688 3.26563 297.188 2.85938C296.688 2.45312 296.297 2.15625 296.016 1.96875V1.78125H310.219C310.219 2.5 310.516 3.6875 311.109 5.34375C311.734 6.96875 312.844 8.89063 314.438 11.1094L329.812 32.1562L344.859 10.1719C345.391 9.39062 345.922 8.59375 346.453 7.78125C346.984 6.96875 347.469 6.1875 347.906 5.4375C348.344 4.6875 348.688 4 348.938 3.375C349.219 2.75 349.359 2.21875 349.359 1.78125H358.5V1.96875C357.812 2.5625 356.891 3.45313 355.734 4.64062C354.578 5.79688 353.328 7.34375 351.984 9.28125L332.484 36.75ZM408.422 69V68.8125C408.484 68.6562 408.531 68.4219 408.562 68.1094C408.594 67.7969 408.609 67.5156 408.609 67.2656C408.609 66.2969 408.469 65.2344 408.188 64.0781C407.938 62.8906 407.438 61.4219 406.688 59.6719L401.016 46.9219C399.266 46.8594 396.938 46.8281 394.031 46.8281C391.125 46.8281 387.984 46.8281 384.609 46.8281C382.141 46.8281 379.75 46.8281 377.438 46.8281C375.156 46.8281 373.094 46.8594 371.25 46.9219L365.859 59.2969C365.391 60.4531 364.891 61.7188 364.359 63.0938C363.828 64.4688 363.562 65.8594 363.562 67.2656C363.562 67.6719 363.594 68.0156 363.656 68.2969C363.719 68.5469 363.781 68.7188 363.844 68.8125V69H354.281V68.8125C354.844 68.2188 355.547 67.1719 356.391 65.6719C357.234 64.1406 358.156 62.2344 359.156 59.9531L386.016 0.375H389.766L415.219 57.6562C415.812 59 416.422 60.3125 417.047 61.5938C417.703 62.8438 418.312 63.9688 418.875 64.9688C419.438 65.9688 419.938 66.8125 420.375 67.5C420.812 68.1875 421.109 68.625 421.266 68.8125V69H408.422ZM378.047 42.7969C379.859 42.7969 381.719 42.7969 383.625 42.7969C385.531 42.7656 387.391 42.75 389.203 42.75C391.047 42.7188 392.812 42.7031 394.5 42.7031C396.188 42.6719 397.719 42.6406 399.094 42.6094L385.922 12.8438L372.984 42.7969H378.047ZM423.75 68.8125C424.094 68.3125 424.484 67.5781 424.922 66.6094C425.359 65.6094 425.703 64.3594 425.953 62.8594C426.297 60.6719 426.672 58.2188 427.078 55.5C427.516 52.75 427.953 49.875 428.391 46.875C428.859 43.875 429.312 40.8125 429.75 37.6875C430.219 34.5312 430.656 31.4375 431.062 28.4062C431.5 25.3438 431.906 22.4062 432.281 19.5938C432.688 16.75 433.047 14.1562 433.359 11.8125C433.672 9.46875 433.922 7.4375 434.109 5.71875C434.328 3.96875 434.484 2.65625 434.578 1.78125H440.531L470.016 56.9062L499.266 1.78125H503.719L511.406 57.4688C511.625 59.2188 511.859 60.7188 512.109 61.9688C512.359 63.2188 512.609 64.2969 512.859 65.2031C513.109 66.0781 513.344 66.8125 513.562 67.4062C513.812 67.9688 514.047 68.4375 514.266 68.8125V69H502.453V68.8125C502.609 68.4688 502.75 67.9062 502.875 67.125C503.031 66.3438 503.109 65.4062 503.109 64.3125C503.109 63.9062 503.094 63.5 503.062 63.0938C503.031 62.6562 502.984 62.1875 502.922 61.6875L496.969 16.7812L469.312 68.8125L466.078 68.4375L438.234 16.3125C437.141 23.7188 436.188 30.5625 435.375 36.8438C435.031 39.5312 434.688 42.2188 434.344 44.9062C434 47.5625 433.688 50.0469 433.406 52.3594C433.156 54.6719 432.953 56.7188 432.797 58.5C432.641 60.25 432.562 61.5469 432.562 62.3906C432.562 63.4531 432.594 64.3906 432.656 65.2031C432.719 66.0156 432.781 66.7031 432.844 67.2656C432.938 67.9219 433.031 68.5 433.125 69H423.75V68.8125ZM571.359 69V68.8125C571.422 68.6562 571.469 68.4219 571.5 68.1094C571.531 67.7969 571.547 67.5156 571.547 67.2656C571.547 66.2969 571.406 65.2344 571.125 64.0781C570.875 62.8906 570.375 61.4219 569.625 59.6719L563.953 46.9219C562.203 46.8594 559.875 46.8281 556.969 46.8281C554.062 46.8281 550.922 46.8281 547.547 46.8281C545.078 46.8281 542.688 46.8281 540.375 46.8281C538.094 46.8281 536.031 46.8594 534.188 46.9219L528.797 59.2969C528.328 60.4531 527.828 61.7188 527.297 63.0938C526.766 64.4688 526.5 65.8594 526.5 67.2656C526.5 67.6719 526.531 68.0156 526.594 68.2969C526.656 68.5469 526.719 68.7188 526.781 68.8125V69H517.219V68.8125C517.781 68.2188 518.484 67.1719 519.328 65.6719C520.172 64.1406 521.094 62.2344 522.094 59.9531L548.953 0.375H552.703L578.156 57.6562C578.75 59 579.359 60.3125 579.984 61.5938C580.641 62.8438 581.25 63.9688 581.812 64.9688C582.375 65.9688 582.875 66.8125 583.312 67.5C583.75 68.1875 584.047 68.625 584.203 68.8125V69H571.359ZM540.984 42.7969C542.797 42.7969 544.656 42.7969 546.562 42.7969C548.469 42.7656 550.328 42.75 552.141 42.75C553.984 42.7188 555.75 42.7031 557.438 42.7031C559.125 42.6719 560.656 42.6406 562.031 42.6094L548.859 12.8438L535.922 42.7969H540.984Z" fill="white"/>
</svg>
