<svg width="723" height="901" viewBox="0 0 723 901" fill="none" xmlns="http://www.w3.org/2000/svg">
<path d="M676.296 458.169H930.841C938.149 458.169 944.693 457.361 950.401 455.88C976.571 449.097 985.406 427.958 970.776 403.146L684.454 -95.0318C664.587 -128.682 619.707 -128.038 598.84 -94.799L5.71462 833.637C-13.3011 863.93 17.848 899.565 59.2102 899.565L328.848 899.361C349.376 899.361 368.305 888.414 377.84 873.426L385.009 862.192L627.422 482.557C636.939 467.568 655.767 458.169 676.296 458.169Z" fill="black" fill-opacity="0.09"/>
<path d="M1231.04 856.25L1071.07 577.364C1064.74 566.293 1050.39 559.128 1034.49 559.128H742.275C726.761 559.128 712.654 565.979 706.127 576.665L529.736 853.881C528.224 856.798 527.323 859.837 526.966 862.903C524.792 881.079 541.801 900.026 566.714 900.026H1194.02C1221.77 898.232 1239.03 876.665 1231.04 856.25Z" fill="black" fill-opacity="0.09"/>
</svg>
